<svg width="39" height="52" viewBox="0 0 39 52" fill="none" xmlns="http://www.w3.org/2000/svg">
<path d="M27.468 19.9896C27.4013 22.255 26.6351 24.1539 25.1692 25.6864C23.6367 27.1523 21.7378 27.9185 19.4724 27.9852C17.2069 27.9185 15.308 27.1523 13.7755 25.6864C12.3097 24.1539 11.5434 22.255 11.4768 19.9896C11.5434 17.7241 12.3097 15.8252 13.7755 14.2927C15.308 12.8269 17.2069 12.0606 19.4724 11.994C21.7378 12.0606 23.6367 12.8269 25.1692 14.2927C26.6351 15.8252 27.4013 17.7241 27.468 19.9896ZM19.4724 16.7913C18.5395 16.7913 17.7733 17.0912 17.1736 17.6908C16.574 18.2905 16.2741 19.0567 16.2741 19.9896C16.2741 20.9224 16.574 21.6886 17.1736 22.2883C17.7733 22.888 18.5395 23.1878 19.4724 23.1878C20.4052 23.1878 21.1714 22.888 21.7711 22.2883C22.3708 21.6886 22.6706 20.9224 22.6706 19.9896C22.6706 19.0567 22.3708 18.2905 21.7711 17.6908C21.1714 17.0912 20.4052 16.7913 19.4724 16.7913ZM38.6618 19.9896C38.5285 22.9879 37.4624 26.4527 35.4635 30.3838C33.398 34.315 31.066 38.1129 28.4674 41.7775C25.8688 45.5088 23.67 48.4738 21.871 50.6726C21.2047 51.4722 20.4052 51.872 19.4724 51.872C18.5395 51.872 17.74 51.4722 17.0737 50.6726C15.2747 48.4738 13.0426 45.5088 10.3774 41.7775C7.77882 38.1129 5.48009 34.315 3.48119 30.3838C1.4823 26.4527 0.416219 22.9879 0.282959 19.9896C0.416219 14.5259 2.28186 9.99508 5.87987 6.39707C9.47788 2.79906 14.0087 0.933419 19.4724 0.800159C24.936 0.933419 29.4668 2.79906 33.0649 6.39707C36.6629 9.99508 38.5285 14.5259 38.6618 19.9896ZM19.4724 5.59751C15.4079 5.73077 12.0098 7.13 9.27799 9.79519C6.6128 12.527 5.21357 15.9251 5.08031 19.9896C5.08031 21.2555 5.58003 23.1545 6.57948 25.6864C7.71219 28.2184 9.14473 30.8836 10.8771 33.682C12.2763 36.0141 13.7422 38.2128 15.2747 40.2784C16.8072 42.4105 18.2064 44.3095 19.4724 45.9752C20.7383 44.3095 22.1376 42.4438 23.67 40.3783C25.2025 38.2462 26.6684 36.0141 28.0676 33.682C29.8 30.8836 31.2325 28.2184 32.3652 25.6864C33.3647 23.1545 33.8644 21.2555 33.8644 19.9896C33.7312 15.9251 32.3319 12.527 29.6667 9.79519C26.9349 7.13 23.5368 5.73077 19.4724 5.59751Z" fill="#2029C8"/>
</svg>
