<svg width="52" height="46" viewBox="0 0 52 46" fill="none" xmlns="http://www.w3.org/2000/svg">
<path d="M25.8688 0.605571C30.6662 0.672201 34.9638 1.87154 38.7617 4.20358C42.5596 6.53563 45.558 9.63392 47.7567 13.4985C50.0222 17.363 51.2548 21.594 51.4547 26.1914V37.3853C51.4547 37.4519 51.4547 37.4852 51.4547 37.4852C51.4547 37.5518 51.4214 37.5852 51.3548 37.5852C51.2215 39.8506 50.3886 41.6829 48.8561 43.0821C47.3237 44.548 45.458 45.3142 43.2592 45.3809C41.9266 45.3809 40.8272 44.9478 39.9611 44.0816C39.0949 43.2154 38.6618 42.116 38.6618 40.7834V27.5907C38.6618 26.2581 39.0949 25.1587 39.9611 24.2925C40.8272 23.4263 41.9266 22.9932 43.2592 22.9932C44.3919 22.9932 45.458 23.2264 46.4575 23.6928C45.7245 18.4291 43.4591 14.0981 39.6612 10.7C35.8633 7.30187 31.2659 5.53618 25.8688 5.40292C20.4718 5.53618 15.8744 7.30187 12.0764 10.7C8.27854 14.0981 6.01313 18.4291 5.2802 23.6928C6.27965 23.2264 7.34573 22.9932 8.47843 22.9932C9.81103 22.9932 10.9104 23.4263 11.7766 24.2925C12.6428 25.1587 13.0759 26.2581 13.0759 27.5907V40.7834C13.0759 42.116 12.6428 43.2154 11.7766 44.0816C10.9104 44.9478 9.81103 45.3809 8.47843 45.3809C6.27965 45.3142 4.41401 44.548 2.88152 43.0821C1.34904 41.6829 0.482849 39.8506 0.282959 37.5852C0.282959 37.5852 0.282959 37.5518 0.282959 37.4852C0.282959 37.4852 0.282959 37.4519 0.282959 37.3853V26.1914C0.482849 21.594 1.7155 17.363 3.98092 13.4985C6.1797 9.63392 9.17805 6.53563 12.976 4.20358C16.7739 1.87154 21.0715 0.672201 25.8688 0.605571ZM8.27854 27.7906C7.34573 27.8572 6.57948 28.2237 5.97981 28.89C5.38014 29.4896 5.08031 30.2559 5.08031 31.1887V37.1854C5.08031 38.1182 5.38014 38.8844 5.97981 39.4841C6.57948 40.1504 7.34573 40.5169 8.27854 40.5835V27.7906ZM43.4591 40.5835C44.3919 40.5169 45.1582 40.1504 45.7579 39.4841C46.3575 38.8844 46.6574 38.1182 46.6574 37.1854V31.1887C46.6574 30.2559 46.3575 29.4896 45.7579 28.89C45.1582 28.2237 44.3919 27.8572 43.4591 27.7906V40.5835Z" fill="#2029C8"/>
</svg>
