<svg width="52" height="39" viewBox="0 0 52 39" fill="none" xmlns="http://www.w3.org/2000/svg">
<path d="M0.282959 7.01326C0.349589 5.21426 0.982573 3.71509 2.18191 2.51575C3.38125 1.31641 4.88042 0.683426 6.67943 0.616796H45.0582C46.8572 0.683426 48.3564 1.31641 49.5558 2.51575C50.7551 3.71509 51.3881 5.21426 51.4547 7.01326V32.5991C51.3881 34.3981 50.7551 35.8973 49.5558 37.0967C48.3564 38.296 46.8572 38.929 45.0582 38.9956H6.67943C4.88042 38.929 3.38125 38.296 2.18191 37.0967C0.982573 35.8973 0.349589 34.3981 0.282959 32.5991V7.01326ZM5.08031 7.01326V9.21205L22.3708 23.4042C23.4368 24.2038 24.6029 24.6036 25.8688 24.6036C27.1348 24.6036 28.3341 24.2038 29.4668 23.4042L46.6574 9.21205V6.91332C46.5907 5.9805 46.0577 5.44746 45.0582 5.3142H6.67943C5.67998 5.44746 5.14694 5.9805 5.08031 6.91332V7.01326ZM5.08031 15.4086V32.5991C5.14694 33.5986 5.67998 34.1316 6.67943 34.1983H45.0582C46.0577 34.1316 46.5907 33.5986 46.6574 32.5991V15.4086L32.4652 27.1022C30.4663 28.6347 28.2675 29.4009 25.8688 29.4009C23.4702 29.4009 21.2381 28.6347 19.1725 27.1022L5.08031 15.4086Z" fill="#2029C8"/>
</svg>
